<svg width="13" height="15" viewBox="0 0 13 15" fill="none" xmlns="http://www.w3.org/2000/svg">
<path d="M2.33806 2.47996L6.05705 0.333328L9.77606 2.47996L8.40876 3.27298L6.05705 1.91937L3.70534 3.27298L2.33806 2.47996ZM9.77606 5.18716L8.40876 4.39415L6.05705 5.74775L3.70534 4.39415L2.33806 5.18716V6.77321L4.68977 8.12679V10.834L6.05705 11.6271L7.42435 10.834V8.12679L9.77606 6.77321V5.18716ZM9.77606 9.48042V7.89438L8.40876 8.68737V10.2734L9.77606 9.48042ZM10.7468 10.041L8.3951 11.3946V12.9806L12.1141 10.834V6.54074L10.7468 7.3338V10.041ZM9.37956 3.83356L10.7468 4.62658V6.21263L12.1141 5.4196V3.83356L10.7468 3.04054L9.37956 3.83356ZM4.68977 11.9689V13.5549L6.05705 14.3479L7.42435 13.5549V11.9689L6.05705 12.7619L4.68977 11.9689ZM2.33806 9.48042L3.70534 10.2734V8.68737L2.33806 7.89438V9.48042ZM4.68977 3.83356L6.05705 4.62658L7.42435 3.83356L6.05705 3.04054L4.68977 3.83356ZM1.36728 4.62658L2.73456 3.83356L1.36728 3.04054L0 3.83356V5.4196L1.36728 6.21263V4.62658ZM1.36728 7.3338L0 6.54074V10.834L3.71899 12.9806V11.3946L1.36728 10.041V7.3338Z" fill="#EEB500"/>
</svg>
