<svg width="59" height="30" viewBox="0 0 59 39" fill="none" xmlns="http://www.w3.org/2000/svg">
<line x1="17" y1="1" x2="42" y2="1" stroke="white" stroke-width="2" stroke-linecap="round"/>
<line x1="17" y1="9.13043" x2="42" y2="9.13043" stroke="white" stroke-width="2" stroke-linecap="round"/>
<line x1="17" y1="17" x2="42" y2="17" stroke="white" stroke-width="2" stroke-linecap="round"/>
<circle cx="13" cy="1" r="1" fill="#D9D9D9"/>
<circle cx="13" cy="9" r="1" fill="#D9D9D9"/>
<circle cx="13" cy="17" r="1" fill="#D9D9D9"/>
<path d="M6.10866 28.1406V26.8182H13.9886V28.1406H10.8118V37H9.28054V28.1406H6.10866ZM17.7198 37.1541C17.0039 37.1541 16.3791 36.9901 15.8455 36.6619C15.3119 36.3338 14.8976 35.8748 14.6026 35.2848C14.3076 34.6948 14.1602 34.0054 14.1602 33.2166C14.1602 32.4245 14.3076 31.7318 14.6026 31.1385C14.8976 30.5452 15.3119 30.0845 15.8455 29.7564C16.3791 29.4283 17.0039 29.2642 17.7198 29.2642C18.4357 29.2642 19.0605 29.4283 19.5941 29.7564C20.1277 30.0845 20.542 30.5452 20.837 31.1385C21.132 31.7318 21.2795 32.4245 21.2795 33.2166C21.2795 34.0054 21.132 34.6948 20.837 35.2848C20.542 35.8748 20.1277 36.3338 19.5941 36.6619C19.0605 36.9901 18.4357 37.1541 17.7198 37.1541ZM17.7248 35.9062C18.1888 35.9062 18.5733 35.7836 18.8782 35.5384C19.1831 35.2931 19.4085 34.9666 19.5543 34.5589C19.7035 34.1513 19.7781 33.7022 19.7781 33.2116C19.7781 32.7244 19.7035 32.277 19.5543 31.8693C19.4085 31.4583 19.1831 31.1286 18.8782 30.88C18.5733 30.6314 18.1888 30.5071 17.7248 30.5071C17.2575 30.5071 16.8697 30.6314 16.5614 30.88C16.2565 31.1286 16.0295 31.4583 15.8803 31.8693C15.7345 32.277 15.6616 32.7244 15.6616 33.2116C15.6616 33.7022 15.7345 34.1513 15.8803 34.5589C16.0295 34.9666 16.2565 35.2931 16.5614 35.5384C16.8697 35.7836 17.2575 35.9062 17.7248 35.9062ZM24.3059 34.4098L24.296 32.5952H24.5545L27.5971 29.3636H29.377L25.9068 33.0426H25.6731L24.3059 34.4098ZM22.9387 37V26.8182H24.4252V37H22.9387ZM27.7612 37L25.0268 33.3707L26.051 32.3317L29.5858 37H27.7612ZM33.7085 37.1541C32.9561 37.1541 32.3081 36.9934 31.7646 36.6719C31.2243 36.3471 30.8067 35.8913 30.5117 35.3047C30.2201 34.7147 30.0742 34.0237 30.0742 33.2315C30.0742 32.4493 30.2201 31.7599 30.5117 31.1634C30.8067 30.5668 31.2177 30.1011 31.7447 29.7663C32.275 29.4316 32.8948 29.2642 33.604 29.2642C34.0349 29.2642 34.4525 29.3355 34.8569 29.478C35.2612 29.6205 35.6242 29.8442 35.9457 30.1491C36.2672 30.4541 36.5207 30.8501 36.7063 31.3374C36.8919 31.8213 36.9847 32.4096 36.9847 33.1023V33.6293H30.9144V32.5156H35.5281C35.5281 32.1245 35.4485 31.7782 35.2894 31.4766C35.1303 31.1716 34.9066 30.9313 34.6183 30.7557C34.3332 30.58 33.9985 30.4922 33.614 30.4922C33.1964 30.4922 32.8318 30.5949 32.5202 30.8004C32.212 31.0026 31.9734 31.2678 31.8043 31.5959C31.6386 31.9207 31.5558 32.2737 31.5558 32.6548V33.5249C31.5558 34.0353 31.6452 34.4695 31.8242 34.8274C32.0065 35.1854 32.2601 35.4588 32.5849 35.6477C32.9097 35.8333 33.2892 35.9261 33.7234 35.9261C34.0051 35.9261 34.262 35.8864 34.494 35.8068C34.726 35.724 34.9265 35.6013 35.0955 35.4389C35.2646 35.2765 35.3938 35.076 35.4833 34.8374L36.8903 35.0909C36.7776 35.5052 36.5754 35.8681 36.2837 36.1797C35.9954 36.4879 35.6325 36.7282 35.195 36.9006C34.7608 37.0696 34.2653 37.1541 33.7085 37.1541ZM40.1206 32.4659V37H38.6341V29.3636H40.0609V30.6065H40.1554C40.331 30.2022 40.6061 29.8774 40.9806 29.6321C41.3585 29.3868 41.8341 29.2642 42.4075 29.2642C42.9279 29.2642 43.3836 29.3736 43.7747 29.5923C44.1658 29.8078 44.469 30.1293 44.6845 30.5568C44.8999 30.9844 45.0076 31.513 45.0076 32.1428V37H43.5211V32.3217C43.5211 31.7682 43.377 31.3357 43.0886 31.0241C42.8002 30.7093 42.4042 30.5518 41.9004 30.5518C41.5557 30.5518 41.2491 30.6264 40.9806 30.7756C40.7155 30.9247 40.505 31.1435 40.3493 31.4318C40.1968 31.7169 40.1206 32.0616 40.1206 32.4659ZM52.7235 31.228L51.3762 31.4666C51.3199 31.2943 51.2304 31.1302 51.1078 30.9744C50.9885 30.8187 50.8261 30.6911 50.6206 30.5916C50.4151 30.4922 50.1582 30.4425 49.85 30.4425C49.429 30.4425 49.0777 30.5369 48.796 30.7259C48.5143 30.9115 48.3734 31.1518 48.3734 31.4467C48.3734 31.7019 48.4679 31.9074 48.6568 32.0632C48.8457 32.219 49.1506 32.3466 49.5716 32.446L50.7846 32.7244C51.4873 32.8868 52.0109 33.1371 52.3556 33.4751C52.7003 33.8132 52.8727 34.2524 52.8727 34.7926C52.8727 35.25 52.7401 35.6577 52.475 36.0156C52.2131 36.3703 51.8469 36.6487 51.3762 36.8509C50.9089 37.053 50.367 37.1541 49.7505 37.1541C48.8954 37.1541 48.1977 36.9718 47.6575 36.6072C47.1172 36.2393 46.7858 35.7173 46.6632 35.0412L48.1 34.8224C48.1895 35.197 48.3734 35.4804 48.6518 35.6726C48.9302 35.8615 49.2931 35.956 49.7406 35.956C50.2278 35.956 50.6172 35.8549 50.9089 35.6527C51.2006 35.4472 51.3464 35.197 51.3464 34.902C51.3464 34.6634 51.2569 34.4628 51.0779 34.3004C50.9023 34.138 50.6322 34.0154 50.2676 33.9325L48.975 33.6491C48.2624 33.4867 47.7354 33.2282 47.394 32.8736C47.0559 32.5189 46.8869 32.0698 46.8869 31.5263C46.8869 31.0755 47.0128 30.6811 47.2647 30.343C47.5166 30.005 47.8646 29.7415 48.3088 29.5526C48.7529 29.3603 49.2617 29.2642 49.835 29.2642C50.6603 29.2642 51.31 29.4432 51.7839 29.8011C52.2579 30.1558 52.5711 30.6314 52.7235 31.228Z" fill="white"/>
</svg>