<svg width="28" height="28" viewBox="0 0 28 28" fill="none" xmlns="http://www.w3.org/2000/svg">
<path d="M26.0556 28H19.0556C17.9814 28 17.1111 27.1966 17.1111 26.2051V19.7436C17.1111 18.9503 16.415 18.3077 15.5556 18.3077H12.4444C11.585 18.3077 10.8889 18.9503 10.8889 19.7436V26.2051C10.8889 27.1966 10.0186 28 8.94445 28H1.94444C0.870333 28 0 27.1966 0 26.2051V12.5016C0 10.8511 0.819778 9.29169 2.22367 8.27077L13.2774 0.230462C13.7013 -0.0768205 14.2987 -0.0768205 14.7218 0.230462L25.7771 8.27077C27.181 9.29169 28 10.8504 28 12.5002V26.2051C28 27.1966 27.1297 28 26.0556 28Z" fill="white"/>
</svg>
