<svg width="40" height="58" viewBox="0 0 70 58" fill="none" xmlns="http://www.w3.org/2000/svg">
<path d="M35.5 1.625C33.2563 1.625 31.4375 3.44385 31.4375 5.6875C31.4375 7.93115 33.2563 9.75 35.5 9.75C37.7436 9.75 39.5625 7.93115 39.5625 5.6875C39.5625 3.44385 37.7436 1.625 35.5 1.625ZM34.6875 12.2668C33.55 12.3668 32.4275 12.6687 31.3867 13.1952L18.7723 19.5825C18.0598 19.9433 17.6155 20.6712 17.6139 21.4821C17.6131 22.2929 18.0542 23.0216 18.766 23.3848L31.3899 29.8276C32.6809 30.4874 34.0989 30.8163 35.5159 30.8163C36.9231 30.8163 38.3311 30.4919 39.6149 29.8419L52.2292 23.4546C52.9418 23.0938 53.3861 22.3659 53.3877 21.5551C53.3893 20.745 52.9473 20.0147 52.2356 19.6523L39.6133 13.2111C38.5733 12.6797 37.4508 12.3732 36.3125 12.27V20.7188C36.3125 21.1673 35.9493 21.5313 35.5 21.5313C35.0507 21.5313 34.6875 21.1673 34.6875 20.7188V12.2668ZM26.9687 20.3125C28.0908 20.3125 29 20.8585 29 21.5312C29 22.204 28.0908 22.75 26.9687 22.75C25.8467 22.75 24.9375 22.204 24.9375 21.5312C24.9375 20.8585 25.8467 20.3125 26.9687 20.3125ZM17.625 24.5908V27.9313C17.6177 27.993 17.6146 28.0544 17.6171 28.1169C17.6422 28.8945 18.0842 29.5934 18.7692 29.9403L31.3915 36.3419C32.7012 37.0057 34.1078 37.3393 35.5143 37.3385C36.9118 37.3385 38.3092 37.0103 39.6117 36.3546L52.2276 30.0085C52.9719 29.634 53.4146 28.8754 53.3845 28.0312C53.3837 27.9996 53.3791 27.9623 53.3734 27.9233V24.6606C53.2431 24.7488 53.1071 24.8322 52.964 24.905L40.3496 31.2923C38.8635 32.0447 37.1912 32.4429 35.5159 32.4429H35.5143C33.8275 32.4429 32.1446 32.0378 30.6504 31.2749L18.0281 24.832C17.8867 24.7597 17.7542 24.6786 17.625 24.5908V24.5908Z" fill="white"/>
<path d="M19.7329 49.0348C19.6367 48.7332 19.5075 48.4631 19.3451 48.2244C19.186 47.9825 18.9954 47.777 18.7733 47.608C18.5513 47.4356 18.2977 47.3047 18.0127 47.2152C17.731 47.1257 17.4211 47.081 17.083 47.081C16.5096 47.081 15.9926 47.2285 15.5319 47.5234C15.0712 47.8184 14.7066 48.2509 14.4381 48.821C14.173 49.3878 14.0404 50.0821 14.0404 50.9041C14.0404 51.7294 14.1746 52.4271 14.4431 52.9972C14.7116 53.5672 15.0795 53.9998 15.5468 54.2947C16.0141 54.5897 16.5461 54.7372 17.1427 54.7372C17.6962 54.7372 18.1784 54.6245 18.5894 54.3991C19.0037 54.1738 19.3235 53.8556 19.5489 53.4446C19.7776 53.0303 19.892 52.5431 19.892 51.983L20.2897 52.0575H17.3763V50.7898H21.3785V51.9482C21.3785 52.8033 21.1962 53.5457 20.8316 54.1754C20.4703 54.8018 19.9698 55.2857 19.3302 55.6271C18.6938 55.9685 17.9646 56.1392 17.1427 56.1392C16.2213 56.1392 15.4126 55.9271 14.7165 55.5028C14.0238 55.0786 13.4836 54.477 13.0958 53.6982C12.708 52.916 12.5141 51.9879 12.5141 50.9141C12.5141 50.102 12.6268 49.3729 12.8522 48.7266C13.0776 48.0803 13.3941 47.5317 13.8018 47.081C14.2127 46.6269 14.695 46.2805 15.2485 46.0419C15.8053 45.8 16.4135 45.679 17.0731 45.679C17.6233 45.679 18.1353 45.7602 18.6093 45.9226C19.0866 46.085 19.5108 46.3153 19.882 46.6136C20.2565 46.9119 20.5664 47.2666 20.8117 47.6776C21.057 48.0852 21.2227 48.5376 21.3089 49.0348H19.7329ZM25.4316 56.169C24.9477 56.169 24.5102 56.0795 24.1191 55.9006C23.728 55.7183 23.4181 55.4548 23.1894 55.1101C22.964 54.7654 22.8513 54.3428 22.8513 53.8423C22.8513 53.4115 22.9342 53.0568 23.0999 52.7784C23.2656 52.5 23.4893 52.2796 23.771 52.1172C24.0528 51.9548 24.3676 51.8321 24.7156 51.7493C25.0637 51.6664 25.4183 51.6035 25.7796 51.5604C26.2369 51.5073 26.6082 51.4643 26.8932 51.4311C27.1782 51.3946 27.3854 51.3366 27.5146 51.2571C27.6439 51.1776 27.7085 51.0483 27.7085 50.8693V50.8345C27.7085 50.4003 27.5859 50.0639 27.3406 49.8253C27.0987 49.5866 26.7374 49.4673 26.2568 49.4673C25.7564 49.4673 25.3619 49.5784 25.0736 49.8004C24.7886 50.0192 24.5914 50.2628 24.482 50.5312L23.085 50.2131C23.2507 49.7491 23.4926 49.3745 23.8108 49.0895C24.1323 48.8011 24.5019 48.5923 24.9195 48.4631C25.3371 48.3305 25.7762 48.2642 26.2369 48.2642C26.5419 48.2642 26.865 48.3007 27.2064 48.3736C27.5511 48.4432 27.8726 48.5724 28.1709 48.7614C28.4725 48.9503 28.7194 49.2204 28.9117 49.5717C29.1039 49.9197 29.2 50.3722 29.2 50.929V56H27.7483V54.956H27.6887C27.5925 55.1482 27.4484 55.3371 27.2561 55.5227C27.0639 55.7083 26.817 55.8625 26.5154 55.9851C26.2137 56.1077 25.8525 56.169 25.4316 56.169ZM25.7547 54.9759C26.1657 54.9759 26.517 54.8946 26.8087 54.7322C27.1037 54.5698 27.3274 54.3577 27.4798 54.0959C27.6356 53.8307 27.7135 53.5473 27.7135 53.2457V52.2614C27.6605 52.3144 27.5577 52.3641 27.4053 52.4105C27.2561 52.4536 27.0854 52.4917 26.8932 52.5249C26.701 52.5547 26.5137 52.5829 26.3314 52.6094C26.1491 52.6326 25.9967 52.6525 25.874 52.669C25.5857 52.7055 25.3222 52.7668 25.0835 52.853C24.8482 52.9392 24.6593 53.0634 24.5168 53.2259C24.3776 53.3849 24.308 53.5971 24.308 53.8622C24.308 54.2301 24.4439 54.5085 24.7156 54.6974C24.9874 54.883 25.3338 54.9759 25.7547 54.9759ZM31.18 56V48.3636H32.6068V49.6065H32.7013C32.8604 49.1856 33.1205 48.8575 33.4818 48.6222C33.8431 48.3835 34.2756 48.2642 34.7794 48.2642C35.2898 48.2642 35.7174 48.3835 36.0621 48.6222C36.4101 48.8608 36.6669 49.1889 36.8327 49.6065H36.9122C37.0945 49.1989 37.3845 48.8741 37.7822 48.6321C38.18 48.3868 38.6539 48.2642 39.2041 48.2642C39.8968 48.2642 40.4619 48.4813 40.8994 48.9155C41.3402 49.3497 41.5606 50.0043 41.5606 50.8793V56H40.0741V51.0185C40.0741 50.5014 39.9333 50.1269 39.6515 49.8949C39.3698 49.6629 39.0334 49.5469 38.6423 49.5469C38.1584 49.5469 37.7822 49.696 37.5138 49.9943C37.2453 50.2893 37.1111 50.6688 37.1111 51.1328V56H35.6295V50.924C35.6295 50.5097 35.5003 50.1766 35.2417 49.9247C34.9832 49.6728 34.6468 49.5469 34.2325 49.5469C33.9508 49.5469 33.6906 49.6214 33.452 49.7706C33.2166 49.9164 33.0261 50.1203 32.8802 50.3821C32.7377 50.6439 32.6665 50.9472 32.6665 51.2919V56H31.18ZM46.8442 56.1541C46.0918 56.1541 45.4439 55.9934 44.9003 55.6719C44.3601 55.3471 43.9424 54.8913 43.6475 54.3047C43.3558 53.7147 43.21 53.0237 43.21 52.2315C43.21 51.4493 43.3558 50.7599 43.6475 50.1634C43.9424 49.5668 44.3534 49.1011 44.8804 48.7663C45.4107 48.4316 46.0305 48.2642 46.7398 48.2642C47.1707 48.2642 47.5883 48.3355 47.9926 48.478C48.397 48.6205 48.7599 48.8442 49.0814 49.1491C49.4029 49.4541 49.6565 49.8501 49.8421 50.3374C50.0277 50.8213 50.1205 51.4096 50.1205 52.1023V52.6293H44.0502V51.5156H48.6638C48.6638 51.1245 48.5843 50.7782 48.4252 50.4766C48.2661 50.1716 48.0423 49.9313 47.754 49.7557C47.469 49.58 47.1342 49.4922 46.7497 49.4922C46.3321 49.4922 45.9675 49.5949 45.656 49.8004C45.3477 50.0026 45.1091 50.2678 44.9401 50.5959C44.7744 50.9207 44.6915 51.2737 44.6915 51.6548V52.5249C44.6915 53.0353 44.781 53.4695 44.96 53.8274C45.1423 54.1854 45.3958 54.4588 45.7206 54.6477C46.0454 54.8333 46.4249 54.9261 46.8591 54.9261C47.1408 54.9261 47.3977 54.8864 47.6297 54.8068C47.8617 54.724 48.0622 54.6013 48.2313 54.4389C48.4003 54.2765 48.5296 54.076 48.6191 53.8374L50.026 54.0909C49.9133 54.5052 49.7111 54.8681 49.4195 55.1797C49.1311 55.4879 48.7682 55.7282 48.3307 55.9006C47.8965 56.0696 47.401 56.1541 46.8442 56.1541ZM57.4921 50.228L56.1448 50.4666C56.0885 50.2943 55.999 50.1302 55.8763 49.9744C55.757 49.8187 55.5946 49.6911 55.3891 49.5916C55.1836 49.4922 54.9268 49.4425 54.6185 49.4425C54.1976 49.4425 53.8463 49.5369 53.5645 49.7259C53.2828 49.9115 53.142 50.1518 53.142 50.4467C53.142 50.7019 53.2364 50.9074 53.4253 51.0632C53.6143 51.219 53.9192 51.3466 54.3401 51.446L55.5532 51.7244C56.2558 51.8868 56.7795 52.1371 57.1242 52.4751C57.4689 52.8132 57.6412 53.2524 57.6412 53.7926C57.6412 54.25 57.5087 54.6577 57.2435 55.0156C56.9817 55.3703 56.6154 55.6487 56.1448 55.8509C55.6775 56.053 55.1356 56.1541 54.5191 56.1541C53.664 56.1541 52.9663 55.9718 52.426 55.6072C51.8858 55.2393 51.5544 54.7173 51.4317 54.0412L52.8685 53.8224C52.958 54.197 53.142 54.4804 53.4204 54.6726C53.6988 54.8615 54.0617 54.956 54.5091 54.956C54.9964 54.956 55.3858 54.8549 55.6775 54.6527C55.9691 54.4472 56.115 54.197 56.115 53.902C56.115 53.6634 56.0255 53.4628 55.8465 53.3004C55.6708 53.138 55.4007 53.0154 55.0361 52.9325L53.7435 52.6491C53.0309 52.4867 52.5039 52.2282 52.1626 51.8736C51.8245 51.5189 51.6555 51.0698 51.6555 50.5263C51.6555 50.0755 51.7814 49.6811 52.0333 49.343C52.2852 49.005 52.6332 48.7415 53.0773 48.5526C53.5215 48.3603 54.0302 48.2642 54.6036 48.2642C55.4289 48.2642 56.0785 48.4432 56.5525 48.8011C57.0264 49.1558 57.3396 49.6314 57.4921 50.228Z" fill="white"/>
</svg>