<svg width="60" height="58" viewBox="0 0 70 58" fill="none" xmlns="http://www.w3.org/2000/svg">
<path d="M35.5 1.625C33.2563 1.625 31.4375 3.44385 31.4375 5.6875C31.4375 7.93115 33.2563 9.75 35.5 9.75C37.7436 9.75 39.5625 7.93115 39.5625 5.6875C39.5625 3.44385 37.7436 1.625 35.5 1.625ZM34.6875 12.2668C33.55 12.3668 32.4275 12.6687 31.3867 13.1952L18.7723 19.5825C18.0598 19.9433 17.6155 20.6712 17.6139 21.482C17.6131 22.2929 18.0542 23.0216 18.766 23.3848L31.3899 29.8276C32.6809 30.4874 34.0989 30.8163 35.5159 30.8163C36.9231 30.8163 38.3311 30.4919 39.6149 29.8419L52.2292 23.4546C52.9418 23.0938 53.3861 22.3659 53.3877 21.5551C53.3893 20.745 52.9473 20.0147 52.2356 19.6523L39.6133 13.2111C38.5733 12.6797 37.4508 12.3732 36.3125 12.27V20.7188C36.3125 21.1673 35.9493 21.5313 35.5 21.5313C35.0507 21.5313 34.6875 21.1673 34.6875 20.7188V12.2668ZM26.9687 20.3125C28.0908 20.3125 29 20.8585 29 21.5312C29 22.204 28.0908 22.75 26.9687 22.75C25.8467 22.75 24.9375 22.204 24.9375 21.5312C24.9375 20.8585 25.8467 20.3125 26.9687 20.3125ZM17.625 24.5908V27.9313C17.6177 27.993 17.6146 28.0544 17.6171 28.1169C17.6422 28.8945 18.0842 29.5934 18.7692 29.9403L31.3915 36.3419C32.7012 37.0057 34.1078 37.3393 35.5143 37.3385C36.9118 37.3385 38.3092 37.0103 39.6117 36.3546L52.2276 30.0085C52.9719 29.634 53.4146 28.8754 53.3845 28.0312C53.3837 27.9996 53.3791 27.9623 53.3734 27.9233V24.6606C53.2431 24.7488 53.1071 24.8322 52.964 24.905L40.3496 31.2923C38.8635 32.0447 37.1912 32.4429 35.5159 32.4429H35.5143C33.8275 32.4429 32.1446 32.0378 30.6504 31.2749L18.0281 24.832C17.8867 24.7597 17.7542 24.6786 17.625 24.5908V24.5908Z" fill="white"/>
<path d="M22.0844 56V45.8182H25.7137C26.5058 45.8182 27.1621 45.9624 27.6824 46.2507C28.2028 46.5391 28.5922 46.9335 28.8508 47.4339C29.1093 47.9311 29.2385 48.4912 29.2385 49.1143C29.2385 49.7408 29.1076 50.3042 28.8458 50.8047C28.5873 51.3018 28.1962 51.6963 27.6725 51.9879C27.1521 52.2763 26.4975 52.4205 25.7087 52.4205H23.213V51.1179H25.5695C26.07 51.1179 26.476 51.0317 26.7876 50.8594C27.0991 50.6837 27.3278 50.4451 27.4736 50.1435C27.6195 49.8419 27.6924 49.4988 27.6924 49.1143C27.6924 48.7299 27.6195 48.3885 27.4736 48.0902C27.3278 47.7919 27.0974 47.5582 26.7826 47.3892C26.471 47.2202 26.06 47.1357 25.5496 47.1357H23.6206V56H22.0844ZM32.4067 45.8182V56H30.9202V45.8182H32.4067ZM36.6288 56.169C36.1449 56.169 35.7074 56.0795 35.3163 55.9006C34.9252 55.7183 34.6153 55.4548 34.3866 55.1101C34.1613 54.7654 34.0486 54.3428 34.0486 53.8423C34.0486 53.4115 34.1314 53.0568 34.2971 52.7784C34.4629 52.5 34.6866 52.2796 34.9683 52.1172C35.25 51.9548 35.5649 51.8321 35.9129 51.7493C36.2609 51.6664 36.6156 51.6035 36.9768 51.5604C37.4342 51.5073 37.8054 51.4643 38.0905 51.4311C38.3755 51.3946 38.5827 51.3366 38.7119 51.2571C38.8412 51.1776 38.9058 51.0483 38.9058 50.8693V50.8345C38.9058 50.4003 38.7832 50.0639 38.5379 49.8253C38.296 49.5866 37.9347 49.4673 37.4541 49.4673C36.9536 49.4673 36.5592 49.5784 36.2709 49.8004C35.9858 50.0192 35.7886 50.2628 35.6792 50.5312L34.2822 50.2131C34.4479 49.7491 34.6899 49.3745 35.0081 49.0895C35.3296 48.8011 35.6991 48.5923 36.1167 48.4631C36.5344 48.3305 36.9735 48.2642 37.4342 48.2642C37.7391 48.2642 38.0623 48.3007 38.4037 48.3736C38.7484 48.4432 39.0699 48.5724 39.3682 48.7614C39.6698 48.9503 39.9167 49.2204 40.1089 49.5717C40.3012 49.9197 40.3973 50.3722 40.3973 50.929V56H38.9456V54.956H38.8859C38.7898 55.1482 38.6456 55.3371 38.4534 55.5227C38.2612 55.7083 38.0142 55.8625 37.7126 55.9851C37.411 56.1077 37.0497 56.169 36.6288 56.169ZM36.952 54.9759C37.363 54.9759 37.7143 54.8946 38.0059 54.7322C38.3009 54.5698 38.5247 54.3577 38.6771 54.0959C38.8329 53.8307 38.9108 53.5473 38.9108 53.2457V52.2614C38.8577 52.3144 38.755 52.3641 38.6025 52.4105C38.4534 52.4536 38.2827 52.4917 38.0905 52.5249C37.8982 52.5547 37.711 52.5829 37.5287 52.6094C37.3464 52.6326 37.1939 52.6525 37.0713 52.669C36.7829 52.7055 36.5194 52.7668 36.2808 52.853C36.0455 52.9392 35.8566 53.0634 35.714 53.2259C35.5748 53.3849 35.5052 53.5971 35.5052 53.8622C35.5052 54.2301 35.6411 54.5085 35.9129 54.6974C36.1847 54.883 36.531 54.9759 36.952 54.9759ZM43.0434 58.8636C42.8213 58.8636 42.6192 58.8454 42.4369 58.8089C42.2546 58.7758 42.1187 58.7393 42.0292 58.6996L42.3872 57.4815C42.6589 57.5545 42.9009 57.5859 43.113 57.576C43.3251 57.5661 43.5124 57.4865 43.6748 57.3374C43.8405 57.1882 43.9864 56.9446 44.1123 56.6065L44.2963 56.0994L41.5022 48.3636H43.0931L45.0271 54.2898H45.1066L47.0406 48.3636H48.6365L45.4894 57.0192C45.3436 57.4169 45.158 57.7533 44.9326 58.0284C44.7072 58.3068 44.4388 58.5156 44.1272 58.6548C43.8157 58.794 43.4544 58.8636 43.0434 58.8636Z" fill="white"/>
</svg>